<?xml version="1.0" encoding="utf-8"?>
<!-- Generator: Adobe Illustrator 24.1.1, SVG Export Plug-In . SVG Version: 6.00 Build 0)  -->
<svg version="1.1" id="Capa_1" xmlns="http://www.w3.org/2000/svg" xmlns:xlink="http://www.w3.org/1999/xlink" x="0px" y="0px"
	 viewBox="0 0 1930.24 529.69" style="enable-background:new 0 0 1930.24 529.69;" xml:space="preserve">
<style type="text/css">
	.st0{fill:#282828;}
	.st1{fill:#383838;}
</style>
<g>
	<path class="st0" d="M50.36,328.58c35.12,50.28,70.04,100.28,105.31,150.78c50.39-35.16,100.5-70.14,150.86-105.28
		c-11.39-16.32-22.54-32.28-33.68-48.23C206.41,230.74,139.99,135.62,73.52,40.53c-4.29-6.14-6.92-12.57-5.45-20.18
		C70.04,10.1,76.07,3.42,86.18,0.87c9.96-2.51,18.35,0.59,24.83,8.43c2.95,3.56,5.42,7.52,8.07,11.32
		c75.95,108.73,151.91,217.47,227.84,326.21c16.7,23.91,12.02,50.07-11.89,66.76c-50.59,35.32-101.19,70.63-151.78,105.95
		c-24.29,16.96-50.25,12.42-67.17-11.79C80.65,457.06,45.24,406.36,9.83,355.65c-16.56-23.71-11.92-49.86,11.78-66.45
		c34.19-23.91,68.35-47.87,102.61-71.66c15.22-10.57,34.49-3.39,38.58,14.12c2.27,9.71-1.66,19.39-10.73,25.76
		c-26.3,18.46-52.65,36.84-78.98,55.25C65.64,317.88,58.19,323.1,50.36,328.58z"/>
	<path class="st0" d="M559.46,201.04c-35.17-50.36-70.02-100.25-105.29-150.75c-50.29,35.09-100.4,70.05-150.85,105.26
		c3.91,5.61,7.63,10.95,11.35,16.27c73.84,105.72,147.68,211.45,221.56,317.14c4.08,5.84,6.78,11.94,5.75,19.2
		c-1.48,10.45-8.2,18.04-18.13,20.62c-9.8,2.54-19.64-0.87-25.78-9.45c-9.86-13.78-19.46-27.73-29.16-41.61
		c-68.72-98.38-137.45-196.76-206.16-295.15c-16.48-23.61-11.75-49.91,11.92-66.43C325.79,80.46,376.89,44.76,428.04,9.13
		c18.21-12.68,39.76-12.12,55.88,1.49c3.14,2.65,5.97,5.83,8.33,9.2c36.31,51.82,72.58,103.68,108.73,155.62
		c15.26,21.93,10.45,48.66-11.46,64.06c-34.53,24.26-69.16,48.37-103.75,72.54c-8.67,6.06-17.82,7-27.05,1.76
		c-8.69-4.93-12.75-12.82-12.14-22.8c0.52-8.41,4.95-14.54,11.79-19.3c30.31-21.09,60.55-42.28,90.81-63.43
		C552.45,205.99,555.7,203.69,559.46,201.04z"/>
</g>
<g>
	<path class="st1" d="M1723.88,274.97c2.95-3.95,5.63-7.51,8.29-11.09c48.75-65.55,97.51-131.08,146.17-196.69
		c2.02-2.72,4.02-3.83,7.45-3.79c14.7,0.21,29.4,0.09,44.45,0.09c0,133.52,0,266.76,0,400.37c-12.73,0-25.57,0-39.17,0
		c0-115.14,0-230.25,0-345.35c-0.41-0.12-0.82-0.24-1.23-0.36c-55.26,74.31-110.53,148.62-166.04,223.27
		c-55.57-74.72-110.86-149.07-166.15-223.42c-0.32,0.08-0.63,0.17-0.95,0.25c0,115.1,0,230.2,0,345.64c-13.45,0-26.3,0-39.41,0
		c0-133.37,0-266.61,0-400.4c9.72,0,19.26-0.02,28.81,0.01c6.72,0.02,14.46-1.95,19.86,0.74c5.38,2.69,8.48,10.04,12.47,15.41
		c47.33,63.61,94.63,127.24,141.95,190.86C1721.43,271.9,1722.52,273.23,1723.88,274.97z"/>
	<path class="st1" d="M807.01,63.46c1.49,0,2.6,0,3.72,0c40.79,0.01,81.59-0.48,122.37,0.16c41.62,0.66,78.41,14.61,108.15,44.26
		c33.04,32.94,45.93,73.27,40.93,119.37c-6.87,63.34-55.74,113.71-121.77,125.77c-2.03,0.37-4.07,0.76-7.25,1.36
		c22.04,18.62,43.44,36.7,64.84,54.78c21.36,18.05,42.73,36.08,64.78,54.71c-2.12,0.16-3.43,0.34-4.75,0.34
		c-16,0.02-31.99,0.13-47.99-0.11c-2.43-0.04-5.31-1.12-7.17-2.69c-40.53-34.03-80.96-68.18-121.32-102.41
		c-2.76-2.34-5.49-3.28-9.06-3.24c-15.18,0.16-30.37,0.07-46.22,0.07c0,36.12,0,71.96,0,108.1c-13.4,0-26.13,0-39.26,0
		C807.01,330.69,807.01,197.36,807.01,63.46z M846.06,209.68c0,33.72,0.08,67.44-0.1,101.16c-0.02,4.43,1.25,5.66,5.64,5.62
		c25.59-0.19,51.19,0.25,76.77-0.26c10.64-0.21,21.48-1.2,31.82-3.59c58.64-13.56,93.1-66.33,81.4-124.92
		c-10.12-50.67-53.33-81.08-99.94-83.85c-29.97-1.78-60.11-0.65-90.17-1.08c-4.62-0.07-5.53,1.53-5.51,5.75
		C846.12,142.24,846.06,175.96,846.06,209.68z"/>
	<path class="st1" d="M1279.19,63.49c13.53,0,26.97,0.1,40.39-0.07c3.27-0.04,3.48,2.21,4.2,4.2
		c12.57,34.49,25.09,68.99,37.66,103.48c34.99,95.96,70,191.92,104.99,287.88c0.54,1.48,1,2.98,1.65,4.94
		c-1.67,0.12-3.01,0.29-4.35,0.3c-11.04,0.02-22.09-0.17-33.12,0.12c-3.61,0.09-4.86-1.34-5.98-4.42
		c-10.31-28.52-20.83-56.96-31.13-85.48c-1.16-3.2-2.64-4.3-6.09-4.29c-57.76,0.12-115.52,0.13-173.28-0.01
		c-3.77-0.01-5.21,1.38-6.39,4.66c-10.22,28.38-20.65,56.68-30.85,85.07c-1.23,3.41-2.85,4.55-6.51,4.47
		c-12.15-0.26-24.3-0.1-37.26-0.1C1181.9,330.42,1230.51,197.07,1279.19,63.49z M1377.42,330.42
		c-25.61-70.3-50.91-139.74-76.21-209.18c-0.35,0.06-0.7,0.13-1.05,0.19c-25.31,69.5-50.62,138.99-76.12,208.99
		C1275.4,330.42,1325.98,330.42,1377.42,330.42z"/>
</g>
</svg>
