<svg xmlns="http://www.w3.org/2000/svg" viewBox="0 0 590.43 695.06"><defs><style>.cls-1,.cls-2,.cls-3{fill:none;}.cls-1,.cls-3{stroke:#000;stroke-miterlimit:10;}.cls-1{stroke-linecap:round;}.cls-4{fill:#c4c5d7;}.cls-5{fill:#f6f6f6;}</style></defs><g id="Capa_1" data-name="Capa 1"><path class="cls-1" d="M526.5,393.5a20,20,0,0,0,0,8,20.26,20.26,0,0,0,3,7c10,15.44,9.68,19.26,19,30,5.94,6.84,12.19,14,23,20,5.1,2.81,13.44,7.3,25,8,11.09.67,19.15-2.51,28-6,10-3.94,22.92-9,32-22,3.14-4.48,8-11.67,7-21a25.28,25.28,0,0,0-4-11" transform="translate(-248.45 -201.13)"/><path class="cls-1" d="M693.5,625.5c.14-4.74.45-9.75,1-15q.43-4.12,1-8a28.05,28.05,0,0,0,15-10,28.82,28.82,0,0,0,4-8c1.74-5,1.51-7.72,3-19,.66-5,.75-4.79,1-7,.79-6.92.19-11.41-3-33-1.73-11.73-2.1-14.06-3-18-.7-3.05-.87-3.35-3-12-2.36-9.58-2.24-9.59-3-12-1.83-5.8-3-9.67-6-14-3.61-5.28-5.44-4.86-8-10-1.19-2.39-1.75-4.41-4-7-1.76-2-2.34-1.86-4-4-2.38-3.06-2-4.41-4-6s-2.49-.53-5-2c-2.18-1.28-1.85-2.07-6-6a14,14,0,0,0-4-3,11.69,11.69,0,0,0-4-1" transform="translate(-248.45 -201.13)"/><path class="cls-1" d="M647.5,404.5c0-1.31,7.38-3.29,16,0,4,1.51,3.88,3.05,9,6s7.81,2.86,20,6a160.13,160.13,0,0,1,17,5,129.53,129.53,0,0,1,17,8c5.77,3.06,13.33,7.33,22,13a87.32,87.32,0,0,1,10,20c1.74,5,5.78,18.18,4,45-1.7,25.63-6,22.53-6,42,0,20.08,0,34.24,6,44,1,1.61,5.48,8.46,5,17a12.75,12.75,0,0,1-1,5c-1.84,4-6.44,6.94-18,9-10.06,1.79-17.38,1.29-25,1-7.19-.27-17.43-.46-30,0a60.68,60.68,0,0,1-3,18c-2.53,7.68-4.11,7.12-6,13-4.72,14.64,3.48,23-3,33-2.07,3.19-3.6,3.42-5,7-2.14,5.48.24,8.06,0,16-.28,9.6-3.86,9.56-3,17,.7,6,3.27,8.17,2,13-.24.9-1.39,5.27-5,7" transform="translate(-248.45 -201.13)"/><path class="cls-1" d="M350.5,433.5c-.12-.66,5.15-.84,9-5,2.12-2.29,1.89-3.47,4-5,2.53-1.84,3.93-.14,7-2,2.54-1.54,2.52-3.27,5-4,1.59-.47,2.4.24,4,0a16,16,0,0,0,8-4c3.38-2.82,8.59-4.22,19-7,8.76-2.34,9-.93,20-3,18.39-3.44,27.26-9.12,33-5,1.24.89,3.72,3.24,7,3,2-.14,2.6-1.13,5-1s2.7,1.07,5,1a11.65,11.65,0,0,0,4-1,30.23,30.23,0,0,0,4-2,22.67,22.67,0,0,1,7-2c4.37-.78,4.66,0,8-1a15.61,15.61,0,0,1,4-1c2.15-.11,3.16.56,5,1,3.16.75,8.3.7,11-2,1.62-1.63,1.14-3,3-4a5.09,5.09,0,0,1,5,0c.59.41.47.63,1,1s5.33-.79,6,0" transform="translate(-248.45 -201.13)"/><path class="cls-1" d="M425.5,520.5c1.21-2.31,2.89-5.4,5-9a225.13,225.13,0,0,1,17-25,237.31,237.31,0,0,1,25-27c6.68-6.36,12.59-11.4,17-15a8,8,0,0,1,1-3,9,9,0,0,1,6-4,4.48,4.48,0,0,1,3,0,4.11,4.11,0,0,1,2,2h0a8,8,0,0,0,5-2c1.1-1.07,1.37-2.14,3-7,1.56-4.66,2-5.65,3-6a4.44,4.44,0,0,1,4,1c.44.42.49.71,1,1a3.73,3.73,0,0,0,3,0c1.76-.77,2.38-2.85,3-5,.66-2.32.29-2.67,1-6,.83-3.9,1.6-4.67,2-5a3.43,3.43,0,0,1,3-1" transform="translate(-248.45 -201.13)"/></g><g id="Capa_2" data-name="Capa 2"><path class="cls-2" d="M423,520a158.21,158.21,0,0,1,20-35c7.65-10,16.43-18,34-34,7.85-7.17,11.55-10,19-17,2-1.85,4.36-4.13,8-7,4-3.14,4.88-3.35,8-6,3.79-3.22,4.45-4.59,8-8a71.36,71.36,0,0,1,10-8,153.17,153.17,0,0,0,11,20c6.54,10,12.64,19.38,23,27,5.25,3.86,18.47,13.23,37,13,14.21-.18,24.61-5.93,30-9,8.6-4.89,15.51-8.82,20-17,2.85-5.19,3.5-10,8-12,3.9-1.74,8.26-.56,12,1,27.86,11.6,41,40,41,40,5.09,11,6.46,21.82,9,43,5.33,44.49,8.3,71.91-6,82-6,4.27-13.49,4.23-18,12-1,1.8-.8,2.6-2,18-.87,11.22-1.15,13.63-2,17-1.65,6.54-3,7-5,13-4,12.21.32,14.38-3,26-3,10.39-6.93,10.41-8,20-.44,4,0,6.25-1,13-1,7.14-1.83,6.93-2,11-.3,7.35,2.15,9.3,2,16a29.08,29.08,0,0,1-3,12,38,38,0,0,1-15-5c-4.2-2.51-6-4.73-10-8-3.26-2.64-7.1-5.2-17-10-25.73-12.46-49.06-19-58-24a67.2,67.2,0,0,0-14-6h0c-20.72-7.19-31.07-10.78-37-11a36.16,36.16,0,0,1-14-3c-3.35-1.5-3.82-2.38-7-4-6.05-3.08-8.21-1.85-17-4-11.7-2.87-12.35-6.19-20-6a51.88,51.88,0,0,1-9,0,41.71,41.71,0,0,1-9-2,27.19,27.19,0,0,1-7-6,30.65,30.65,0,0,1-5-9c-2.17-5.54-1.07-6-3-11-1.42-3.68-2.21-3.9-6-11,0,0-1.71-3.2-4-8-1.52-3.18-12.5-27.94-9-62C413.94,542.07,419.52,528.36,423,520Z" transform="translate(-248.45 -201.13)"/><path class="cls-3" d="M615,810c2.63-2.59,2.69-4.22,6-9a29,29,0,0,1,9-9c9.5-6.07,41.22-15.56,58-26a43.77,43.77,0,0,1,13-6c3.27-.85,5.25-.91,12-2,4.69-.75,6,0,8.5-.5-3.3-.19-7.75-.49-13-1-7.92-.77-8.88-.16-13-1-9.77-2-11.4-3-20-4-1.39-.16-3.32-1.34-6-2a75.85,75.85,0,0,1-14-6c-4.24-2.55-15.15-8.63-17-11-9.39-5.67-35.21-16.84-51-24-22-10-18-8-44-14-6.94-1.6-9-6-17.5-6.5a50.11,50.11,0,0,1-8-1,59,59,0,0,1-12-4c-6-2.71-5.93-4-10.5-4.5-2.26-.26-3.29-1.43-5.5-1.5a34.67,34.67,0,0,1-14.5-3.5c-11.4-5.21-13.51-.15-24-6-1.89-1.06-8.42-1-11-5-1.68-2.58-3.85-1.31-7-11-.77-2.37-3.62-9.91-4-11-1.53-4.39-.35-6.6-6-14-1.33.33-4.67-3.33-6-3,.3,2,1.21,2.67,1.5,6.5.43,5.72,1,18.15-4,46-1.87,10.49-2.81,15.73-4,19a83.11,83.11,0,0,1-17,28c-1.83,1.88-.91.75-13,12-3.16,3-4.12,3.86-6,5-3.94,2.39-6.63,2.58-13,5-3,1.15-5.45,2.25-7,3a63,63,0,0,1,0,15c-.64,5.2-1.51,6.58-1,10,.8,5.36,3.43,5.32,6,12,2.44,6.34.84,8.37,4,15a23.81,23.81,0,0,0,4,6,16.37,16.37,0,0,0,5,4c3.33,1.53,6.32.62,10,0,.68-.11,11.45-1.82,22,1a27.14,27.14,0,0,1,9,4c3.13,2.21,3.8,3.81,6,6,6.16,6.12,14.74,7.38,19,8,6.59,1,7.69-.53,14,1,5.11,1.24,5,1.7,6.5,2.5" transform="translate(-248.45 -201.13)"/><path class="cls-4" d="M456,834c-3.59-3.92-12.35-4-15-4-4.65,0-5.47.84-9,0-5.89-1.4-8.58-5.28-11-4-1.41.75-1.77,2.74-2,4-.55,3,1,4,1,7,0,2.81-1.09,3.54-3,9-.61,1.75-1.07,3.5-2,7-4.64,17.55-7,26.33-3,31,2.68,3.16,8.45,3.44,20,4,7.35.36,9.17-.52,10-1,5-2.87,5.35-9.24,7-18C453.38,845.69,460.44,838.85,456,834Z" transform="translate(-248.45 -201.13)"/><path class="cls-4" d="M290,794a33.58,33.58,0,0,1,4-10c7.63-12.61,22.92-18.39,36-18,4.25.13,17.13.51,25,10,6.35,7.66,7.86,19.36,5,21-1.67,1-3.86-2.06-9-5-10-5.75-23.15-6.57-33-4-7.46,2-10.93,5.29-21,6A50,50,0,0,1,290,794Z" transform="translate(-248.45 -201.13)"/><path class="cls-5" d="M421,825c-.06,2.09-1.68,3.2-2,7-.25,3,.53,4.76,1,7a25,25,0,0,1-1,13,34.83,34.83,0,0,1,6,4c2.24,1.85,3.36,2.78,4,4,1.6,3.07-.3,6.26-4,15-4.6,10.87-4.05,11.63-6,13-3.89,2.73-7.64.82-17,1-7.25.14-7.62,1.37-15,2-9.11.78-16.17,1.38-21-1-16.66-8.2-12.94-55,3-73a24.11,24.11,0,0,1,6-5c12.27-7.14,27.18-.57,33,2C411.51,815.55,421.16,819.8,421,825Z" transform="translate(-248.45 -201.13)"/><path class="cls-5" d="M284,893a29.45,29.45,0,0,1-8-5c-2.11-2-2.11-2.75-5-6-4-4.52-5.36-4.59-7-7s-2.55-5.81-2-12c1.29-14.59,8.07-19.69,13-38,2.12-7.86,1-7.54,3-13,1.36-3.79,6.63-18.43,18-24,.53-.26.61-.27,9-4a12.28,12.28,0,0,0,3,0c4.17-.52,6.84-3.11,8-4,5.8-4.44,17.43.32,24,3,.69.28,6.45,4.2,18,12a53.31,53.31,0,0,1,10,8c2.74,2.89,5.39,5.68,7,10,2.41,6.46-.45,8.39,2,14,1.94,4.45,4.09,4,8,10,2.21,3.39,1.78,3.91,5,11,4.91,10.81,6.75,11.42,8,17,.84,3.74,1.88,8.42,0,13-3.37,8.21-14,10.93-26,14a125.82,125.82,0,0,1-19,3c-10,1-13,.62-31,1C309.74,896.26,293,896.81,284,893Z" transform="translate(-248.45 -201.13)"/><path class="cls-3" d="M289,534c-.46,1.92-1.84,9.4-3,17-.38,2.51-.63,4.33-1,7-1.58,11.47-2.36,17.2-3,22-2,15.1-5.77,31.45-7,38-2.16,11.51.23,29.17,5,64,4.25,31,8.81,55.8,12,73,2,10.72,3.74,19.66,5,26a42.55,42.55,0,0,1,57-6q.25-12.75.5-25.5c1.73-14.42,2.56-25.94,3-34a108.08,108.08,0,0,1,1-12c1.92-12.53,5.29-15.8,8-26,2.5-9.43,2.33-16.85,2-31-.22-9.55-1.05-12.46-1-23,0-8,.56-14.64,1-19" transform="translate(-248.45 -201.13)"/><path class="cls-3" d="M681,333a8.81,8.81,0,0,1,4-2,7.75,7.75,0,0,1,6,1c2.12,1.52,2.6,3.95,3,6a18.06,18.06,0,0,1,0,6c-.91,4.91-7,13.37-17,22a8.73,8.73,0,0,1-7,3,8.41,8.41,0,0,1-7-5,67.23,67.23,0,0,0-6,5c-1.08,1-2.08,2-3,3a118.17,118.17,0,0,0-4,13c-1.25,5.07-1.84,8.93-2,10-.57,3.83-.86,7.21-1,10a11.43,11.43,0,0,1,5,1,12.22,12.22,0,0,1,3,2c1.89,1.84,2.46,5.42,1,13-1.5,7.75-2.4,12.45-6,18-4.62,7.13-10.42,10.63-16,14a58.17,58.17,0,0,1-16,7c-17.48,4.54-32.32-1.14-37-3a68.13,68.13,0,0,1-17-10c-8-6.14-12.58-12-18-19-9.72-12.52-12.07-19.62-13-23-2.34-8.48-.8-11.71,0-13,2.09-3.37,5.14-3.22,9-7,2.53-2.48,3.75-5,6-11a244.69,244.69,0,0,0,8-25c4.28-17,4.13-21.71,2-23-1.41-.86-2.93.25-6-1a12.08,12.08,0,0,1-5-4c-1.31-1.7-2.44-4.06-3-15-.29-5.69-.44-8.53,0-11,.56-3.2,1.6-8.65,6-12,1.17-.89,3.36-2.56,6-2a6.63,6.63,0,0,1,4,3" transform="translate(-248.45 -201.13)"/><path class="cls-3" d="M741,625c-.29,5.45-.64,12.19-1,20a80.76,80.76,0,0,0,0,11,71.25,71.25,0,0,0,2,12c1.29,5.27,4.9,20,6,31,.85,8.51-.31,9.59-1,26a281.16,281.16,0,0,0,.5,28.5c-9.7,1.14-18.38,3.2-24.5,3.5-12.42.6-17.35.16-19,0a89,89,0,0,1-19-4c-1.11-9.76-2.72-20.13-5-31-.62-3-2.35-7-3-13-.85-7.91-.26-10.61.5-14.5" transform="translate(-248.45 -201.13)"/><path class="cls-3" d="M557,281a90.43,90.43,0,0,1,40-60,47.9,47.9,0,0,1,11-11,41.63,41.63,0,0,1,19-8,40.24,40.24,0,0,1,19,2,44.23,44.23,0,0,1,11,2c12.2,3.88,20,12.37,27,20,3.3,3.59,5.68,6.69,9,11,4.82,6.26,7.23,9.39,9,13,3.3,6.73,3.67,12.7,4,19,.15,2.84.62,14.77-4,31a117.26,117.26,0,0,1-14,31,5.83,5.83,0,0,0-3,0c-2.57.73-3.6,3.21-4,3s1.41-4.77,3-10c.91-3,.78-3.18,2-8,2.65-10.44,3.25-9.47,4-14,1.13-6.85-.38-8.31,1-15a40.65,40.65,0,0,1,3-9,41.22,41.22,0,0,0-2-14,42.94,42.94,0,0,0-7-13c-2.52-3.36-8.22-10.77-18-15-1.69-.73-6.46-1.82-16-4-7.17-1.64-12.28-2.66-14-3-10.66-2.11-16-3.16-18-3-7.26.59-12.65,3.89-21,9a43.57,43.57,0,0,0-8,6,41.75,41.75,0,0,0-7,9c-2.1,3.63-1.76,4.28-4,9-3.42,7.19-4.63,6.55-7,12-2.12,4.87-1.17,5.43-4,14-2.77,8.4-3.68,10.08-4,10-.52-.13,1.34-4.7-1-8a34.19,34.19,0,0,0-3-3C558.72,282.74,557.69,281.7,557,281Z" transform="translate(-248.45 -201.13)"/><path class="cls-3" d="M615,810c-5.31,1.88-13.22,4.5-23,7-6.33,1.62-13.93,3.32-45,8-12.67,1.91-5.47.73-35,5-12.93,1.87-26.1,1.89-39,4-4.3.7-7.54,1.63-11,0-1.14-.54-2.52-1.46-4-1-1.86.58-2.67,3-3,4-3.34,10.38-5,15.58-6,20-2,9.07-2.85,8.86-5,19-1,4.52-1.59,8.32-2,11a123.33,123.33,0,0,1,16-2,125.35,125.35,0,0,1,25,1c13.67,1.81,19.07.57,57,1,30.87.35,49.5,1.42,66,2,29.87,1.06,77,1.39,152-2,4.87-2.51,26.24-13.62,42-24a145.4,145.4,0,0,0,13-10c5.72-4.88,8.6-8,11-12,1.28-2.12,1.42-2.81,3-6a119.41,119.41,0,0,1,9-15c6-9.56.3-32.57-13-47-14.37-15.59-34.21-17.49-50-19-14-1.34-26.15-.06-51.5,3.5" transform="translate(-248.45 -201.13)"/><path class="cls-3" d="M352,433a154.53,154.53,0,0,0-24,6c-4.65,1.58-7.53,2.83-13,4-3.37.72-4.59.74-16,2-12,1.33-14.07,1.68-17,3s-5,2.89-9,6a103.89,103.89,0,0,0-12,11c-8.38,8.81-12.56,13.31-12,18,.34,2.83,2.05,5.5,3,7,2.33,3.66,3.69,3.52,6,7,2.58,3.9,1.38,4.84,4,9,2,3.13,3,3.18,6,7s3.46,5.66,5,8c4.09,6.22,10.77,8.7,17,11,3.2,1.18,2.63.31,20,3,3.33.52,5,.78,6,1,7.87,1.78,12.54,4.78,17,7a66.77,66.77,0,0,0,19,6,31.24,31.24,0,0,1,4,6,38.24,38.24,0,0,1,3,9c2,7.8,3,11.9,5,16,1.79,3.74,2.88,3.61,6,9a73.86,73.86,0,0,1,4,8c2,4.53,7.5,12.2,23,26a16.3,16.3,0,0,0,8,2,12,12,0,0,0,5-1,11.52,11.52,0,0,0,4-3,11,11,0,0,0,5,2c.32,0,6.32.71,10-4a11.26,11.26,0,0,0,2-9c3.59,3.29,6.28,6.13,8,8,2.89,3.16,4.15,4.85,14,17,8.92,11,.91,1,5,6,5.25,6.41,6.35,8.1,9,9,.58.19,5,1.7,8-1,2.74-2.49,2.07-6.62,2-7a136.8,136.8,0,0,1-11-16c-4.67-8-6.24-12.57-12-19-3-3.38-3.11-2.69-7-7,0,0-2.9-3.21-11-14a9.35,9.35,0,0,1,4-2c2.62-.56,6.16,0,17,9a109.83,109.83,0,0,1,12,11c9.11,9.89,10,11,10,11,2.31,2.88,3.9,5.12,7,6,.9.26,4.52,1.13,7-1s2.93-6.2,1-10l-7-10c-2.44-3.14-9.81-12.52-17-20-2.56-2.66-5-5-5-5-3.66-3.5-6.43-5.83-9-8-14.05-11.88-16.67-14.66-16-16,.31-.61,1.24-.83,2-1a7.47,7.47,0,0,1,5,1c4.63,2.27,7.58,3.88,10,5,0,0,2.55,1.18,5,2,11.07,3.68,21.88-.06,24-3a7.83,7.83,0,0,0,1-2c.11-.44.81-2.58,0-4-.67-1.17-1.95-1.13-6-2-3.6-.77-5.4-1.15-7-2-2-1-2.13-1.74-5-4a55.18,55.18,0,0,0-6-4c-7.43-4.52-7.6-3.23-11-6-1.32-1.08-5.41-4.62-7-6a12.75,12.75,0,0,0-6-3,43,43,0,0,0-10-1c-6.16.32-15.23-1.58-20-3-13.07-3.89-21.67-12.49-29-15-.34-.12-2.06-.69-2-1s2.66.11,5,0a24,24,0,0,0,11-3,22,22,0,0,0,8-8,23.69,23.69,0,0,0,3-13c-.38-11.39-8.07-19.51-18-30a60.44,60.44,0,0,0-12-10c-3.3-2.07-6.42-4-11-5A28.41,28.41,0,0,0,352,433Z" transform="translate(-248.45 -201.13)"/></g></svg>