<svg xmlns="http://www.w3.org/2000/svg" xmlns:xlink="http://www.w3.org/1999/xlink" width="631.1" height="695.6" viewBox="0 0 631.1 695.6"><defs><style>.cls-1,.cls-2,.cls-3{fill:none;}.cls-1,.cls-3{stroke:#000;stroke-miterlimit:10;}.cls-1{stroke-linecap:round;}.cls-4{fill:url(#Degradado_sin_nombre_11);}</style><linearGradient id="Degradado_sin_nombre_11" x1="69.07" y1="253.64" x2="627.96" y2="526.94" gradientUnits="userSpaceOnUse"><stop offset="0" stop-color="#fff" stop-opacity="0"/><stop offset="1" stop-color="#383838" stop-opacity="0.1"/></linearGradient></defs><g id="Capa_1" data-name="Capa 1"><path class="cls-1" d="M526.5,393.5a19.3,19.3,0,0,0,0,8,19.7,19.7,0,0,0,3,7c10,15.4,9.7,19.3,19,30,5.9,6.8,12.2,14,23,20,5.1,2.8,13.4,7.3,25,8s19.1-2.5,28-6,22.9-9,32-22c3.1-4.5,8-11.7,7-21a24.9,24.9,0,0,0-4-11" transform="translate(-248.4 -201.1)"/><path class="cls-1" d="M693.5,625.5c.1-4.7.5-9.8,1-15,.3-2.7.6-5.4,1-8,3.4-1,10.2-3.5,15-10a28,28,0,0,0,4-8c1.7-4.9,1.5-7.7,3-19,.7-5,.7-4.8,1-7,.8-6.9.2-11.4-3-33-1.7-11.7-2.1-14.1-3-18s-.9-3.3-3-12-2.2-9.6-3-12c-1.8-5.8-3-9.7-6-14s-5.4-4.9-8-10c-1.2-2.4-1.8-4.4-4-7s-2.3-1.9-4-4-2-4.4-4-6-2.5-.5-5-2-1.9-2.1-6-6a14.3,14.3,0,0,0-4-3,12.8,12.8,0,0,0-4-1" transform="translate(-248.4 -201.1)"/><path class="cls-1" d="M647.5,404.5c0-1.3,7.4-3.3,16,0,4,1.5,3.9,3,9,6s7.8,2.9,20,6a164.8,164.8,0,0,1,17,5c6.3,2.3,10.6,4.6,17,8s13.3,7.3,22,13a87.5,87.5,0,0,1,10,20c1.7,5,5.8,18.2,4,45s-6,22.5-6,42,0,34.2,6,44c1,1.6,5.5,8.5,5,17a12.7,12.7,0,0,1-1,5c-1.8,4-6.4,6.9-18,9-10.1,1.8-17.4,1.3-25,1s-17.4-.5-30,0a61.7,61.7,0,0,1-3,18c-2.5,7.7-4.1,7.1-6,13-4.7,14.6,3.5,23-3,33-2.1,3.2-3.6,3.4-5,7-2.1,5.5.2,8.1,0,16-.3,9.6-3.9,9.6-3,17s3.3,8.2,2,13c-.2.9-1.4,5.3-5,7" transform="translate(-248.4 -201.1)"/><path class="cls-1" d="M350.5,433.5c-.1-.7,5.2-.8,9-5,2.1-2.3,1.9-3.5,4-5s3.9-.1,7-2,2.5-3.3,5-4,2.4.2,4,0a15.2,15.2,0,0,0,8-4c3.4-2.8,8.6-4.2,19-7,8.8-2.3,9-.9,20-3,18.4-3.4,27.3-9.1,33-5,1.2.9,3.7,3.2,7,3s2.6-1.1,5-1,2.7,1.1,5,1a11.2,11.2,0,0,0,4-1,24.7,24.7,0,0,0,4-2,21.2,21.2,0,0,1,7-2c4.4-.8,4.7,0,8-1a16.7,16.7,0,0,1,4-1c2.2-.1,3.2.6,5,1s8.3.7,11-2,1.1-3,3-4a5,5,0,0,1,5,0c.6.4.5.6,1,1s5.3-.8,6,0" transform="translate(-248.4 -201.1)"/><path class="cls-1" d="M425.5,520.5c1.2-2.3,2.9-5.4,5-9a225.7,225.7,0,0,1,17-25,237.4,237.4,0,0,1,25-27c6.7-6.4,12.6-11.4,17-15a9.4,9.4,0,0,1,1-3c1.7-3,4.9-3.7,6-4a5.1,5.1,0,0,1,3,0,4.1,4.1,0,0,1,2,2h0a7.6,7.6,0,0,0,5-2c1.1-1.1,1.4-2.1,3-7s2-5.7,3-6a4.4,4.4,0,0,1,4,1c.4.4.5.7,1,1a4.1,4.1,0,0,0,3,0c1.8-.8,2.4-2.8,3-5s.3-2.7,1-6,1.6-4.7,2-5a3.3,3.3,0,0,1,3-1" transform="translate(-248.4 -201.1)"/></g><g id="Capa_2" data-name="Capa 2"><path class="cls-2" d="M423,520a160.8,160.8,0,0,1,20-35c7.6-10,16.4-18,34-34,7.9-7.2,11.5-10,19-17,2-1.8,4.4-4.1,8-7s4.9-3.3,8-6,4.4-4.6,8-8a73.2,73.2,0,0,1,10-8,149.6,149.6,0,0,0,11,20c6.5,10,12.6,19.4,23,27,5.2,3.9,18.5,13.2,37,13,14.2-.2,24.6-5.9,30-9,8.6-4.9,15.5-8.8,20-17,2.9-5.2,3.5-10,8-12s8.3-.6,12,1c27.9,11.6,41,40,41,40,5.1,11,6.5,21.8,9,43,5.3,44.5,8.3,71.9-6,82-6.1,4.3-13.5,4.2-18,12-1,1.8-.8,2.6-2,18-.9,11.2-1.1,13.6-2,17-1.7,6.5-3,7-5,13-4,12.2.3,14.4-3,26s-6.9,10.4-8,20c-.4,4,0,6.2-1,13s-1.8,6.9-2,11c-.3,7.3,2.2,9.3,2,16a29.6,29.6,0,0,1-3,12,38,38,0,0,1-15-5c-4.2-2.5-5.9-4.7-10-8s-7.1-5.2-17-10c-25.7-12.5-49.1-19-58-24a69.4,69.4,0,0,0-14-6h0c-20.7-7.2-31.1-10.8-37-11a36.5,36.5,0,0,1-14-3c-3.3-1.5-3.8-2.4-7-4-6-3.1-8.2-1.8-17-4-11.7-2.9-12.3-6.2-20-6a44.1,44.1,0,0,1-9,0,39.5,39.5,0,0,1-9-2,28.2,28.2,0,0,1-7-6,32,32,0,0,1-5-9c-2.2-5.5-1.1-6-3-11s-2.2-3.9-6-11c0,0-1.7-3.2-4-8-1.5-3.2-12.5-27.9-9-62C413.9,542.1,419.5,528.4,423,520Z" transform="translate(-248.4 -201.1)"/><path class="cls-3" d="M615,810c2.6-2.6,2.7-4.2,6-9a35,35,0,0,1,4-5,33.9,33.9,0,0,1,5-4c9.5-6.1,41.2-15.6,58-26a44.3,44.3,0,0,1,13-6c3.3-.9,5.2-.9,12-2,4.7-.8,6,0,8.5-.5l-13-1c-7.9-.8-8.9-.2-13-1-9.8-2-11.4-3-20-4-1.4-.2-3.3-1.3-6-2a78.3,78.3,0,0,1-14-6c-4.2-2.6-15.1-8.6-17-11-9.4-5.7-35.2-16.8-51-24-22-10-18-8-44-14-6.9-1.6-9-6-17.5-6.5a63.9,63.9,0,0,1-8-1,59.8,59.8,0,0,1-12-4c-6-2.7-5.9-4-10.5-4.5-2.3-.3-3.3-1.4-5.5-1.5a34.7,34.7,0,0,1-14.5-3.5c-11.4-5.2-13.5-.1-24-6-1.9-1.1-8.4-1-11-5s-3.8-1.3-7-11c-.8-2.4-3.6-9.9-4-11-1.5-4.4-.4-6.6-6-14-1.3.3-4.7-3.3-6-3,.3,2,1.2,2.7,1.5,6.5.4,5.7,1,18.1-4,46-1.9,10.5-2.8,15.7-4,19a83.4,83.4,0,0,1-17,28c-1.8,1.9-.9.7-13,12-3.2,2.9-4.1,3.9-6,5-3.9,2.4-6.6,2.6-13,5l-7,3a67,67,0,0,1,0,15c-.6,5.2-1.5,6.6-1,10,.8,5.4,3.4,5.3,6,12s.8,8.4,4,15a20.6,20.6,0,0,0,4,6,15.3,15.3,0,0,0,5,4c3.3,1.5,6.3.6,10,0a58.9,58.9,0,0,1,22,1,26.6,26.6,0,0,1,9,4c3.1,2.2,3.8,3.8,6,6,6.2,6.1,14.7,7.4,19,8,6.6,1,7.7-.5,14,1s5,1.7,6.5,2.5" transform="translate(-248.4 -201.1)"/><path class="cls-3" d="M456,834c-3.6-3.9-12.3-4-15-4-4.7,0-5.5.8-9,0-5.9-1.4-8.6-5.3-11-4s-1.8,2.7-2,4c-.5,3,1,4,1,7s-1.1,3.5-3,9c-.6,1.7-1.1,3.5-2,7-4.6,17.6-7,26.3-3,31s8.5,3.4,20,4c7.4.4,9.2-.5,10-1,5-2.9,5.4-9.2,7-18C453.4,845.7,460.4,838.9,456,834Z" transform="translate(-248.4 -201.1)"/><path class="cls-3" d="M290,794a36.1,36.1,0,0,1,4-10c7.6-12.6,22.9-18.4,36-18,4.2.1,17.1.5,25,10,6.3,7.7,7.9,19.4,5,21s-3.9-2.1-9-5c-10-5.7-23.1-6.6-33-4-7.5,1.9-10.9,5.3-21,6A53.3,53.3,0,0,1,290,794Z" transform="translate(-248.4 -201.1)"/><path class="cls-3" d="M419,888c-3.9,2.7-7.6.8-17,1-7.3.1-7.6,1.4-15,2-9.1.8-6.5.5-13.5.5" transform="translate(-248.4 -201.1)"/><path class="cls-3" d="M359.5,796.5c4,2.7,5.3,3.1,8.5,6.5s5.4,5.7,7,10c2.4,6.5-.4,8.4,2,14s4.1,4,8,10c2.2,3.4,1.8,3.9,5,11,4.9,10.8,6.8,11.4,8,17,.8,3.7,1.9,8.4,0,13-3.4,8.2-14,10.9-26,14a128.9,128.9,0,0,1-19,3c-10,1-13,.6-31,1-12.3.3-29,.8-38-3a30.2,30.2,0,0,1-8-5c-2.1-2-2.1-2.7-5-6s-5.4-4.6-7-7-2.5-5.8-2-12c1.3-14.6,8.1-19.7,13-38,2.1-7.9,1-7.5,3-13,1.4-3.8,1.1-11.9,12.5-17.5" transform="translate(-248.4 -201.1)"/><path class="cls-3" d="M289,534c-.5,1.9-1.8,9.4-3,17-.4,2.5-.6,4.3-1,7-1.6,11.5-2.4,17.2-3,22-2,15.1-5.8,31.5-7,38-2.2,11.5.2,29.2,5,64,4.2,31,8.8,55.8,12,73,2,10.7,3.7,19.7,5,26a42.5,42.5,0,0,1,57-6c.2-8.5.3-17,.5-25.5,1.7-14.4,2.6-25.9,3-34a105.7,105.7,0,0,1,1-12c1.9-12.5,5.3-15.8,8-26s2.3-16.8,2-31c-.2-9.5-1-12.5-1-23,0-8,.6-14.6,1-19" transform="translate(-248.4 -201.1)"/><path class="cls-3" d="M681,333a8.6,8.6,0,0,1,4-2,8.1,8.1,0,0,1,6,1c2.1,1.5,2.6,4,3,6a17.1,17.1,0,0,1,0,6c-.9,4.9-7,13.4-17,22a8.9,8.9,0,0,1-7,3,8.5,8.5,0,0,1-7-5c-1.9,1.4-3.9,3.1-6,5s-2.1,2-3,3a118.8,118.8,0,0,0-4,13c-1.2,5.1-1.8,8.9-2,10a84.1,84.1,0,0,0-1,10,12.4,12.4,0,0,1,5,1,11.5,11.5,0,0,1,3,2c1.9,1.8,2.5,5.4,1,13s-2.4,12.4-6,18c-4.6,7.1-10.4,10.6-16,14a61,61,0,0,1-16,7c-17.5,4.5-32.3-1.1-37-3a66.8,66.8,0,0,1-17-10c-8-6.1-12.6-12-18-19-9.7-12.5-12.1-19.6-13-23-2.3-8.5-.8-11.7,0-13,2.1-3.4,5.1-3.2,9-7s3.7-5,6-11a242.7,242.7,0,0,0,8-25c4.3-17,4.1-21.7,2-23s-2.9.2-6-1a11.6,11.6,0,0,1-5-4c-1.3-1.7-2.4-4.1-3-15-.3-5.7-.4-8.5,0-11s1.6-8.7,6-12c1.2-.9,3.4-2.6,6-2a6.8,6.8,0,0,1,4,3" transform="translate(-248.4 -201.1)"/><path class="cls-3" d="M741,625c-.3,5.5-.6,12.2-1,20a80.8,80.8,0,0,0,0,11,64.7,64.7,0,0,0,2,12c1.3,5.3,4.9,20,6,31,.9,8.5-.3,9.6-1,26-.5,12.9.2,21.8.5,28.5-9.7,1.1-18.4,3.2-24.5,3.5-12.4.6-17.4.2-19,0a88.2,88.2,0,0,1-19-4c-1.1-9.8-2.7-20.1-5-31-.6-2.9-2.4-7-3-13-.9-7.9-.3-10.6.5-14.5" transform="translate(-248.4 -201.1)"/><path class="cls-3" d="M557,281a90.4,90.4,0,0,1,40-60,46.9,46.9,0,0,1,11-11,41.7,41.7,0,0,1,19-8,40.4,40.4,0,0,1,19,2,41.4,41.4,0,0,1,11,2c12.2,3.9,20,12.4,27,20,3.3,3.6,5.7,6.7,9,11,4.8,6.3,7.2,9.4,9,13,3.3,6.7,3.7,12.7,4,19a98.9,98.9,0,0,1-4,31,117.4,117.4,0,0,1-14,31,6.1,6.1,0,0,0-3,0c-2.6.7-3.6,3.2-4,3s1.4-4.8,3-10c.9-3,.8-3.2,2-8,2.6-10.4,3.3-9.5,4-14,1.1-6.8-.4-8.3,1-15a38.7,38.7,0,0,1,3-9,40.2,40.2,0,0,0-2-14,42.4,42.4,0,0,0-7-13c-2.5-3.4-8.2-10.8-18-15-1.7-.7-6.5-1.8-16-4l-14-3c-10.7-2.1-16-3.2-18-3-7.3.6-12.6,3.9-21,9a43.8,43.8,0,0,0-8,6,41.4,41.4,0,0,0-7,9c-2.1,3.6-1.8,4.3-4,9-3.4,7.2-4.6,6.5-7,12s-1.2,5.4-4,14-3.7,10.1-4,10,1.3-4.7-1-8c-.3-.5-.5-.5-3-3Z" transform="translate(-248.4 -201.1)"/><path class="cls-3" d="M615,810c-5.3,1.9-13.2,4.5-23,7-6.3,1.6-13.9,3.3-45,8l-35,5c-12.9,1.9-26.1,1.9-39,4-4.3.7-7.5,1.6-11,0-1.1-.5-2.5-1.5-4-1s-2.7,3-3,4c-3.3,10.4-5,15.6-6,20-2,9.1-2.9,8.9-5,19-1,4.5-1.6,8.3-2,11a124.6,124.6,0,0,1,16-2,130.7,130.7,0,0,1,25,1c13.7,1.8,19.1.6,57,1,30.9.3,49.5,1.4,66,2,29.9,1.1,77,1.4,152-2,4.9-2.5,26.2-13.6,42-24a149.6,149.6,0,0,0,13-10c5.7-4.9,8.6-8,11-12a66.1,66.1,0,0,0,3-6,120,120,0,0,1,9-15c6-9.6.3-32.6-13-47s-34.2-17.5-50-19c-14-1.3-26.1-.1-51.5,3.5" transform="translate(-248.4 -201.1)"/><path class="cls-3" d="M352,433a155.7,155.7,0,0,0-24,6,95.3,95.3,0,0,1-13,4c-3.4.7-4.6.7-16,2s-14.1,1.7-17,3-5,2.9-9,6a102.9,102.9,0,0,0-12,11c-8.4,8.8-12.6,13.3-12,18,.3,2.8,2,5.5,3,7,2.3,3.7,3.7,3.5,6,7s1.4,4.8,4,9,3,3.2,6,7,3.5,5.7,5,8c4.1,6.2,10.8,8.7,17,11,3.2,1.2,2.6.3,20,3l6,1c7.9,1.8,12.5,4.8,17,7a65.3,65.3,0,0,0,19,6,32.4,32.4,0,0,1,4,6c1.6,3.1,2.1,5.4,3,9,2,7.8,3,11.9,5,16s2.9,3.6,6,9a77.4,77.4,0,0,1,4,8c2,4.5,7.5,12.2,23,26a15.5,15.5,0,0,0,8,2,12.1,12.1,0,0,0,5-1,11.7,11.7,0,0,0,4-3,10.3,10.3,0,0,0,5,2c.3,0,6.3.7,10-4a11.5,11.5,0,0,0,2-9c3.6,3.3,6.3,6.1,8,8s4.1,4.9,14,17,.9,1,5,6,6.3,8.1,9,9c.6.2,5,1.7,8-1s2.1-6.6,2-7a134.3,134.3,0,0,1-11-16c-4.7-8-6.2-12.6-12-19-3-3.4-3.1-2.7-7-7,0,0-2.9-3.2-11-14a9.3,9.3,0,0,1,4-2c2.6-.6,6.2,0,17,9a103.6,103.6,0,0,1,12,11c9.1,9.9,10,11,10,11,2.3,2.9,3.9,5.1,7,6,.9.3,4.5,1.1,7-1s2.9-6.2,1-10l-7-10c-2.4-3.1-9.8-12.5-17-20-2.6-2.7-5-5-5-5-3.7-3.5-6.4-5.8-9-8-14.1-11.9-16.7-14.7-16-16s1.2-.8,2-1,3.7.4,5,1c4.6,2.3,7.6,3.9,10,5a45.2,45.2,0,0,0,5,2c11.1,3.7,21.9-.1,24-3a6.5,6.5,0,0,0,1-2c.1-.4.8-2.6,0-4s-2-1.1-6-2-5.4-1.2-7-2-2.1-1.7-5-4a56.6,56.6,0,0,0-6-4c-7.4-4.5-7.6-3.2-11-6l-7-6a12.3,12.3,0,0,0-3-2,12.7,12.7,0,0,0-3-1,44.6,44.6,0,0,0-10-1c-6.2.3-15.2-1.6-20-3-13.1-3.9-21.7-12.5-29-15-.3-.1-2.1-.7-2-1s2.7.1,5,0a24.6,24.6,0,0,0,11-3,21.8,21.8,0,0,0,8-8,23.3,23.3,0,0,0,3-13c-.4-11.4-8.1-19.5-18-30a59.5,59.5,0,0,0-12-10c-3.3-2.1-6.4-4-11-5A27.9,27.9,0,0,0,352,433Z" transform="translate(-248.4 -201.1)"/><circle class="cls-4" cx="320.1" cy="376.4" r="311"/></g></svg>